<svg width="512" height="512" viewBox="0 0 512 512" fill="none" xmlns="http://www.w3.org/2000/svg">
  <rect width="512" height="512" rx="56" fill="#007F7B"/>
  <path d="M184.7 67.3C204.8 65.2 225.8 78.8 234.7 98.8C240.8 112.4 242.1 126.8 242 141.5C241.7 179.9 241.5 218.2 241.5 256.5C241.5 263.2 243.6 267.6 250.8 268.3C260.6 269.3 270.4 264.7 278 259.1C304.7 239.4 329.4 217.4 356.7 198.6C371.8 188.2 390.1 183 408.3 188.6C423.6 193.3 437.6 204.3 445.8 218.3C447.1 220.6 447 223 445.2 225C420.5 252.6 394.7 279.2 367.7 304.5C365.9 306.2 366.6 309.2 369 310C391.2 317.4 413.8 323.5 436.7 328.4C442.6 329.7 449.2 329.4 454.3 325.9C457.2 323.9 461.1 326.9 459.6 330.1C451.8 346.9 443.2 363.4 433.9 379.4C427.9 389.8 417 396.1 405 396C388.1 395.8 372.4 388.9 358.1 380.7C330.5 364.9 305.4 345.1 278.8 327.7C275 325.2 270 326.2 267.5 329.9C257.2 345.5 249.7 363 245.5 381.3C242.4 395 232.6 406.2 219.7 411.8C210.3 415.9 199.9 418.8 189.3 419.7C185.4 420 182.2 416.7 182.8 412.9C185.7 393.1 186.8 373.1 186.2 353.1C185.8 338.5 181.9 325.9 169.6 317.4C165.3 314.4 166.1 307.5 170.9 305.3C179.3 301.4 184.9 293.4 184.9 284.1C185 223.4 184.3 162.8 178 102.4C176.9 91.9 174.9 81.6 172.1 71.5C175.9 69.5 180.2 67.8 184.7 67.3Z" fill="white"/>
  <path d="M74 388H438" stroke="white" stroke-width="7" stroke-linecap="round"/>
  <text x="256" y="457" text-anchor="middle" font-family="Inter, Arial, sans-serif" font-size="54" font-weight="500" fill="white">Vietnam</text>
</svg>
